<svg width="26" height="26" viewBox="0 0 26 26" fill="none"
                            xmlns="http://www.w3.org/2000/svg">
                            <path
                                d="M12.9999 6.50001C14.0877 6.50001 15.1511 6.82258 16.0555 7.42693C16.96 8.03128 17.6649 8.89026 18.0812 9.89525C18.4975 10.9002 18.6064 12.0061 18.3942 13.073C18.182 14.1399 17.6582 15.1199 16.889 15.8891C16.1198 16.6583 15.1398 17.1821 14.0729 17.3943C13.006 17.6066 11.9001 17.4976 10.8951 17.0813C9.89013 16.6651 9.03115 15.9601 8.4268 15.0556C7.82246 14.1512 7.49989 13.0878 7.49989 12C7.49989 10.5413 8.07935 9.14237 9.1108 8.11092C10.1422 7.07947 11.5412 6.50001 12.9999 6.50001ZM18.9999 5.00001H20.9999V7.00001C20.9999 7.26523 21.1052 7.51958 21.2928 7.70712C21.4803 7.89465 21.7347 8.00001 21.9999 8.00001C22.2651 8.00001 22.5195 7.89465 22.707 7.70712C22.8945 7.51958 22.9999 7.26523 22.9999 7.00001V5.00001H24.9999C25.2651 5.00001 25.5195 4.89465 25.707 4.70712C25.8945 4.51958 25.9999 4.26523 25.9999 4.00001C25.9999 3.73479 25.8945 3.48044 25.707 3.29291C25.5195 3.10537 25.2651 3.00001 24.9999 3.00001H22.9999V1.00001C22.9999 0.734795 22.8945 0.480441 22.707 0.292905C22.5195 0.105368 22.2651 1.16137e-05 21.9999 1.16137e-05C21.7347 1.16137e-05 21.4803 0.105368 21.2928 0.292905C21.1052 0.480441 20.9999 0.734795 20.9999 1.00001V3.00001H18.9999C18.7347 3.00001 18.4803 3.10537 18.2928 3.29291C18.1052 3.48044 17.9999 3.73479 17.9999 4.00001C17.9999 4.26523 18.1052 4.51958 18.2928 4.70712C18.4803 4.89465 18.7347 5.00001 18.9999 5.00001ZM24.6999 10.125C24.5696 10.1433 24.4442 10.1874 24.3312 10.2548C24.2181 10.3222 24.1197 10.4115 24.0417 10.5175C23.9637 10.6234 23.9076 10.7439 23.8768 10.8719C23.846 10.9998 23.8411 11.1326 23.8624 11.2625C23.9521 11.8374 23.9981 12.4182 23.9999 13C24.0036 15.6917 23.0157 18.2905 21.2249 20.3C20.4154 19.1389 19.3723 18.1596 18.1624 17.425C16.7732 18.7559 14.9237 19.4989 12.9999 19.4989C11.0761 19.4989 9.22657 18.7559 7.83739 17.425C6.62747 18.1596 5.58436 19.1389 4.77489 20.3C3.3684 18.7146 2.44985 16.7567 2.12971 14.6616C1.80958 12.5666 2.10147 10.4236 2.97031 8.49056C3.83914 6.55747 5.24791 4.91653 7.0272 3.76508C8.80649 2.61363 10.8805 2.00071 12.9999 2.00001C13.5817 2.00183 14.1625 2.04779 14.7374 2.13751C14.9966 2.17303 15.2594 2.10556 15.4694 1.94956C15.6795 1.79356 15.82 1.56147 15.8609 1.30306C15.9018 1.04464 15.8398 0.780499 15.6881 0.567279C15.5365 0.35406 15.3074 0.208747 15.0499 0.162512C14.3722 0.0520194 13.6865 -0.00233175 12.9999 1.16137e-05C10.3804 0.000920745 7.82233 0.793138 5.66083 2.27285C3.49934 3.75256 1.83527 5.85073 0.886702 8.29242C-0.0618662 10.7341 -0.250687 13.4054 0.344984 15.9562C0.940655 18.5071 2.29303 20.8185 4.22489 22.5875L4.38739 22.7375C6.76396 24.8394 9.82716 25.9997 12.9999 25.9997C16.1726 25.9997 19.2358 24.8394 21.6124 22.7375L21.7749 22.5875C23.1075 21.3714 24.1717 19.8906 24.8992 18.2396C25.6267 16.5887 26.0016 14.8041 25.9999 13C26.0022 12.3134 25.9479 11.6277 25.8374 10.95C25.8176 10.8208 25.7724 10.6968 25.7044 10.5852C25.6363 10.4736 25.5468 10.3766 25.441 10.2999C25.3352 10.2231 25.2152 10.1681 25.088 10.1381C24.9608 10.1081 24.8288 10.1037 24.6999 10.125Z"
                                fill="white" />
                        </svg>