<svg width="32" height="32" viewBox="0 0 32 32" fill="none" xmlns="http://www.w3.org/2000/svg">
<path d="M29 16C29.0007 13.8375 28.4619 11.709 27.4325 9.80729C26.4031 7.90556 24.9155 6.29067 23.1045 5.10888C21.2935 3.92709 19.2163 3.21573 17.0611 3.03923C14.9058 2.86273 12.7406 3.22666 10.7614 4.09807C8.7823 4.96947 7.05181 6.32083 5.72669 8.02973C4.40157 9.73864 3.52368 11.7511 3.17254 13.8849C2.82139 16.0187 3.00808 18.2063 3.71569 20.2498C4.4233 22.2932 5.62949 24.1278 7.225 25.5875L7.3875 25.7375C9.76407 27.8394 12.8273 28.9997 16 28.9997C19.1727 28.9997 22.2359 27.8394 24.6125 25.7375L24.775 25.5875C26.1077 24.3714 27.1718 22.8905 27.8993 21.2396C28.6268 19.5887 29.0017 17.8041 29 16ZM5 16C4.99934 14.2184 5.43142 12.4633 6.25909 10.8857C7.08675 9.30802 8.28522 7.95501 9.75145 6.94298C11.2177 5.93096 12.9078 5.29021 14.6764 5.07584C16.445 4.86147 18.2393 5.07989 19.9048 5.71232C21.5704 6.34475 23.0574 7.37227 24.238 8.7065C25.4186 10.0407 26.2575 11.6418 26.6824 13.3719C27.1074 15.1021 27.1058 16.9095 26.6778 18.6389C26.2497 20.3683 25.408 21.9678 24.225 23.3C23.11 21.683 21.5392 20.4342 19.7125 19.7125C20.6923 18.9408 21.4072 17.883 21.7579 16.6861C22.1086 15.4892 22.0776 14.2128 21.6693 13.0344C21.2609 11.856 20.4955 10.8341 19.4794 10.1108C18.4634 9.3876 17.2472 8.99895 16 8.99895C14.7528 8.99895 13.5366 9.3876 12.5206 10.1108C11.5045 10.8341 10.7391 11.856 10.3307 13.0344C9.92238 14.2128 9.89139 15.4892 10.2421 16.6861C10.5928 17.883 11.3077 18.9408 12.2875 19.7125C10.4608 20.4342 8.88999 21.683 7.775 23.3C5.98421 21.2904 4.99633 18.6917 5 16ZM12 15C12 14.2089 12.2346 13.4355 12.6741 12.7777C13.1136 12.1199 13.7384 11.6072 14.4693 11.3045C15.2002 11.0017 16.0044 10.9225 16.7804 11.0768C17.5563 11.2312 18.269 11.6121 18.8284 12.1716C19.3878 12.731 19.7688 13.4437 19.9231 14.2196C20.0775 14.9955 19.9983 15.7998 19.6955 16.5307C19.3928 17.2616 18.8801 17.8863 18.2223 18.3259C17.5645 18.7654 16.7911 19 16 19C14.9402 18.9967 13.9246 18.5742 13.1752 17.8248C12.4258 17.0753 12.0033 16.0598 12 15ZM9.2625 24.6875C9.98615 23.5572 10.9825 22.6271 12.1599 21.9828C13.3373 21.3386 14.6579 21.001 16 21.001C17.3421 21.001 18.6627 21.3386 19.8401 21.9828C21.0175 22.6271 22.0139 23.5572 22.7375 24.6875C20.8111 26.1856 18.4404 26.999 16 26.999C13.5596 26.999 11.1889 26.1856 9.2625 24.6875Z" fill="white"/>
</svg>
